<mxfile host="app.diagrams.net" modified="2024-07-11T09:03:31.187Z" agent="Mozilla/5.0 (Macintosh; Intel Mac OS X 10_15_7) AppleWebKit/537.36 (KHTML, like Gecko) Chrome/126.0.0.0 Safari/537.36" etag="4KoTm-D1moVsvcp_eZZw" version="24.6.4" type="device">
  <diagram name="Page-1" id="_joPg3DMvoW-7FjI46ja">
    <mxGraphModel dx="2066" dy="1277" grid="1" gridSize="10" guides="1" tooltips="1" connect="1" arrows="1" fold="1" page="1" pageScale="1" pageWidth="300" pageHeight="300" background="none" math="0" shadow="1">
      <root>
        <mxCell id="0" />
        <mxCell id="1" parent="0" />
        <mxCell id="v1wCD1H5V6o5z9qrqqnc-1" value="Start Simulation" style="strokeWidth=2;html=1;shape=mxgraph.flowchart.start_1;whiteSpace=wrap;textShadow=0;" parent="1" vertex="1">
          <mxGeometry x="-395" y="-270" width="150" height="40" as="geometry" />
        </mxCell>
        <mxCell id="v1wCD1H5V6o5z9qrqqnc-4" value="Load and validate configuration" style="rounded=1;whiteSpace=wrap;html=1;absoluteArcSize=1;arcSize=14;strokeWidth=2;textShadow=0;" parent="1" vertex="1">
          <mxGeometry x="-400" y="-190" width="160" height="40" as="geometry" />
        </mxCell>
        <mxCell id="v1wCD1H5V6o5z9qrqqnc-5" value="Create Core components" style="rounded=1;whiteSpace=wrap;html=1;absoluteArcSize=1;arcSize=14;strokeWidth=2;textShadow=0;" parent="1" vertex="1">
          <mxGeometry x="-400" y="-100" width="160" height="40" as="geometry" />
        </mxCell>
        <mxCell id="v1wCD1H5V6o5z9qrqqnc-6" value="Configuration&lt;div&gt;files&lt;/div&gt;" style="strokeWidth=2;html=1;shape=mxgraph.flowchart.multi-document;whiteSpace=wrap;fillColor=#f8cecc;strokeColor=#b85450;textShadow=0;" parent="1" vertex="1">
          <mxGeometry x="-580" y="-280" width="120" height="60" as="geometry" />
        </mxCell>
        <mxCell id="v1wCD1H5V6o5z9qrqqnc-11" value="Layer&lt;div&gt;Structure&lt;/div&gt;" style="shape=parallelogram;html=1;strokeWidth=2;perimeter=parallelogramPerimeter;whiteSpace=wrap;rounded=1;arcSize=12;size=0.23;fillColor=#dae8fc;strokeColor=#6c8ebf;textShadow=0;" parent="1" vertex="1">
          <mxGeometry x="60" y="-50" width="120" height="40" as="geometry" />
        </mxCell>
        <mxCell id="v1wCD1H5V6o5z9qrqqnc-13" value="Data&lt;div&gt;Store&lt;/div&gt;" style="shape=parallelogram;html=1;strokeWidth=2;perimeter=parallelogramPerimeter;whiteSpace=wrap;rounded=1;arcSize=12;size=0.23;fillColor=#dae8fc;strokeColor=#6c8ebf;textShadow=0;" parent="1" vertex="1">
          <mxGeometry x="-140" y="50" width="120" height="40" as="geometry" />
        </mxCell>
        <mxCell id="v1wCD1H5V6o5z9qrqqnc-14" value="Load and validate&amp;nbsp;&lt;div&gt;initial data&lt;/div&gt;" style="rounded=1;whiteSpace=wrap;html=1;absoluteArcSize=1;arcSize=14;strokeWidth=2;textShadow=0;" parent="1" vertex="1">
          <mxGeometry x="-400" y="-10" width="160" height="40" as="geometry" />
        </mxCell>
        <mxCell id="v1wCD1H5V6o5z9qrqqnc-15" value="Data files" style="strokeWidth=2;html=1;shape=mxgraph.flowchart.multi-document;whiteSpace=wrap;fillColor=#f8cecc;strokeColor=#b85450;textShadow=0;" parent="1" vertex="1">
          <mxGeometry x="-580" y="-13" width="120" height="60" as="geometry" />
        </mxCell>
        <mxCell id="v1wCD1H5V6o5z9qrqqnc-17" value="Configure Science Models" style="rounded=1;whiteSpace=wrap;html=1;absoluteArcSize=1;arcSize=14;strokeWidth=2;textShadow=0;" parent="1" vertex="1">
          <mxGeometry x="-395" y="130" width="160" height="40" as="geometry" />
        </mxCell>
        <mxCell id="v1wCD1H5V6o5z9qrqqnc-18" value="Model&lt;div&gt;Config&lt;/div&gt;" style="shape=parallelogram;html=1;strokeWidth=2;perimeter=parallelogramPerimeter;whiteSpace=wrap;rounded=1;arcSize=12;size=0.23;fillColor=#dae8fc;strokeColor=#6c8ebf;textShadow=0;" parent="1" vertex="1">
          <mxGeometry x="-175" y="-190" width="120" height="40" as="geometry" />
        </mxCell>
        <mxCell id="v1wCD1H5V6o5z9qrqqnc-43" value="Initialise Science Models" style="rounded=1;whiteSpace=wrap;html=1;absoluteArcSize=1;arcSize=14;strokeWidth=2;textShadow=0;" parent="1" vertex="1">
          <mxGeometry x="-160" y="130" width="160" height="40" as="geometry" />
        </mxCell>
        <mxCell id="v1wCD1H5V6o5z9qrqqnc-44" value="Core&lt;div&gt;Constants&lt;/div&gt;" style="shape=parallelogram;html=1;strokeWidth=2;perimeter=parallelogramPerimeter;whiteSpace=wrap;rounded=1;arcSize=12;size=0.23;fillColor=#dae8fc;strokeColor=#6c8ebf;textShadow=0;" parent="1" vertex="1">
          <mxGeometry x="-60" y="-50" width="120" height="40" as="geometry" />
        </mxCell>
        <mxCell id="v1wCD1H5V6o5z9qrqqnc-46" value="Update Science models" style="rounded=1;whiteSpace=wrap;html=1;absoluteArcSize=1;arcSize=14;strokeWidth=2;textShadow=0;" parent="1" vertex="1">
          <mxGeometry x="40" y="130" width="160" height="40" as="geometry" />
        </mxCell>
        <mxCell id="v1wCD1H5V6o5z9qrqqnc-47" value="Initial Model&lt;div&gt;State&lt;/div&gt;" style="strokeWidth=2;html=1;shape=mxgraph.flowchart.document2;whiteSpace=wrap;size=0.25;fillColor=#f8cecc;strokeColor=#b85450;textShadow=0;" parent="1" vertex="1">
          <mxGeometry x="-130" y="210" width="100" height="50" as="geometry" />
        </mxCell>
        <mxCell id="v1wCD1H5V6o5z9qrqqnc-48" value="Incremental&lt;div&gt;Model States&lt;/div&gt;" style="strokeWidth=2;html=1;shape=mxgraph.flowchart.multi-document;whiteSpace=wrap;fillColor=#f8cecc;strokeColor=#b85450;textShadow=0;" parent="1" vertex="1">
          <mxGeometry x="65" y="210" width="110" height="60" as="geometry" />
        </mxCell>
        <mxCell id="v1wCD1H5V6o5z9qrqqnc-51" value="Final Model&lt;div&gt;State&lt;/div&gt;" style="strokeWidth=2;html=1;shape=mxgraph.flowchart.document2;whiteSpace=wrap;size=0.25;fillColor=#f8cecc;strokeColor=#b85450;textShadow=0;" parent="1" vertex="1">
          <mxGeometry x="270" y="210" width="100" height="50" as="geometry" />
        </mxCell>
        <mxCell id="MKp3U7_JL66kcD90rXiK-6" value="End Simulation" style="rounded=1;whiteSpace=wrap;html=1;absoluteArcSize=1;arcSize=128;strokeWidth=2;textShadow=0;" vertex="1" parent="1">
          <mxGeometry x="240" y="130" width="160" height="40" as="geometry" />
        </mxCell>
        <mxCell id="v1wCD1H5V6o5z9qrqqnc-12" value="Model&lt;div&gt;Timing&lt;/div&gt;" style="shape=parallelogram;html=1;strokeWidth=2;perimeter=parallelogramPerimeter;whiteSpace=wrap;rounded=1;arcSize=12;size=0.23;fillColor=#dae8fc;strokeColor=#6c8ebf;textShadow=0;" parent="1" vertex="1">
          <mxGeometry x="180" y="-50" width="120" height="40" as="geometry" />
        </mxCell>
        <mxCell id="v1wCD1H5V6o5z9qrqqnc-10" value="&lt;div&gt;&lt;span style=&quot;background-color: initial;&quot;&gt;Spatial&lt;/span&gt;&lt;br&gt;&lt;/div&gt;&lt;div&gt;&lt;span style=&quot;background-color: initial;&quot;&gt;Grid&lt;/span&gt;&lt;/div&gt;" style="shape=parallelogram;html=1;strokeWidth=2;perimeter=parallelogramPerimeter;whiteSpace=wrap;rounded=1;arcSize=12;size=0.23;fillColor=#dae8fc;strokeColor=#6c8ebf;textShadow=0;" parent="1" vertex="1">
          <mxGeometry x="-180" y="-50" width="120" height="40" as="geometry" />
        </mxCell>
        <mxCell id="MKp3U7_JL66kcD90rXiK-48" value="" style="endArrow=classic;html=1;rounded=0;strokeWidth=2;exitX=0.5;exitY=1;exitDx=0;exitDy=0;exitPerimeter=0;entryX=0.501;entryY=-0.071;entryDx=0;entryDy=0;entryPerimeter=0;textShadow=0;" edge="1" parent="1" source="v1wCD1H5V6o5z9qrqqnc-1" target="v1wCD1H5V6o5z9qrqqnc-4">
          <mxGeometry width="50" height="50" relative="1" as="geometry">
            <mxPoint x="-60" y="110" as="sourcePoint" />
            <mxPoint x="-320" y="-200" as="targetPoint" />
          </mxGeometry>
        </mxCell>
        <mxCell id="MKp3U7_JL66kcD90rXiK-51" value="" style="endArrow=classic;html=1;rounded=0;strokeWidth=2;exitX=0.5;exitY=1;exitDx=0;exitDy=0;entryX=1;entryY=0.25;entryDx=0;entryDy=0;textShadow=0;" edge="1" parent="1" source="v1wCD1H5V6o5z9qrqqnc-18" target="v1wCD1H5V6o5z9qrqqnc-5">
          <mxGeometry width="50" height="50" relative="1" as="geometry">
            <mxPoint x="-290" y="-200" as="sourcePoint" />
            <mxPoint x="-230" y="-120" as="targetPoint" />
            <Array as="points">
              <mxPoint x="-115" y="-90" />
            </Array>
          </mxGeometry>
        </mxCell>
        <mxCell id="MKp3U7_JL66kcD90rXiK-53" value="" style="endArrow=classic;html=1;rounded=0;strokeWidth=2;exitX=1;exitY=0.5;exitDx=0;exitDy=0;exitPerimeter=0;textShadow=0;" edge="1" parent="1" source="v1wCD1H5V6o5z9qrqqnc-6">
          <mxGeometry width="50" height="50" relative="1" as="geometry">
            <mxPoint x="-430" y="-250" as="sourcePoint" />
            <mxPoint x="-400" y="-250" as="targetPoint" />
          </mxGeometry>
        </mxCell>
        <mxCell id="MKp3U7_JL66kcD90rXiK-54" value="" style="endArrow=classic;html=1;rounded=0;strokeWidth=2;exitX=1;exitY=0.5;exitDx=0;exitDy=0;textShadow=0;" edge="1" parent="1" source="v1wCD1H5V6o5z9qrqqnc-4" target="v1wCD1H5V6o5z9qrqqnc-18">
          <mxGeometry width="50" height="50" relative="1" as="geometry">
            <mxPoint x="-230" y="-170.5" as="sourcePoint" />
            <mxPoint x="-180" y="-170" as="targetPoint" />
          </mxGeometry>
        </mxCell>
        <mxCell id="MKp3U7_JL66kcD90rXiK-55" value="" style="endArrow=classic;html=1;rounded=0;strokeWidth=2;entryX=0.5;entryY=0;entryDx=0;entryDy=0;textShadow=0;" edge="1" parent="1" target="v1wCD1H5V6o5z9qrqqnc-10">
          <mxGeometry width="50" height="50" relative="1" as="geometry">
            <mxPoint x="-240" y="-70" as="sourcePoint" />
            <mxPoint x="-45" y="-71" as="targetPoint" />
            <Array as="points">
              <mxPoint x="-120" y="-70" />
            </Array>
          </mxGeometry>
        </mxCell>
        <mxCell id="MKp3U7_JL66kcD90rXiK-57" value="" style="endArrow=classic;html=1;rounded=0;strokeWidth=2;entryX=0.5;entryY=0;entryDx=0;entryDy=0;exitX=1;exitY=0.75;exitDx=0;exitDy=0;textShadow=0;" edge="1" parent="1" source="v1wCD1H5V6o5z9qrqqnc-5" target="v1wCD1H5V6o5z9qrqqnc-44">
          <mxGeometry width="50" height="50" relative="1" as="geometry">
            <mxPoint x="-240" y="-60" as="sourcePoint" />
            <mxPoint y="-50" as="targetPoint" />
            <Array as="points">
              <mxPoint y="-70" />
            </Array>
          </mxGeometry>
        </mxCell>
        <mxCell id="MKp3U7_JL66kcD90rXiK-58" value="" style="endArrow=classic;html=1;rounded=0;strokeWidth=2;entryX=0.5;entryY=0;entryDx=0;entryDy=0;exitX=1;exitY=0.75;exitDx=0;exitDy=0;textShadow=0;" edge="1" parent="1" source="v1wCD1H5V6o5z9qrqqnc-5" target="v1wCD1H5V6o5z9qrqqnc-11">
          <mxGeometry width="50" height="50" relative="1" as="geometry">
            <mxPoint x="-240" y="-60" as="sourcePoint" />
            <mxPoint x="-100" y="-30" as="targetPoint" />
            <Array as="points">
              <mxPoint x="120" y="-70" />
            </Array>
          </mxGeometry>
        </mxCell>
        <mxCell id="MKp3U7_JL66kcD90rXiK-59" value="" style="endArrow=classic;html=1;rounded=0;strokeWidth=2;exitX=1;exitY=0.75;exitDx=0;exitDy=0;entryX=0.5;entryY=0;entryDx=0;entryDy=0;textShadow=0;" edge="1" parent="1" source="v1wCD1H5V6o5z9qrqqnc-5" target="v1wCD1H5V6o5z9qrqqnc-12">
          <mxGeometry width="50" height="50" relative="1" as="geometry">
            <mxPoint x="-210" y="-40" as="sourcePoint" />
            <mxPoint x="-90" y="-20" as="targetPoint" />
            <Array as="points">
              <mxPoint x="240" y="-70" />
            </Array>
          </mxGeometry>
        </mxCell>
        <mxCell id="MKp3U7_JL66kcD90rXiK-62" value="" style="endArrow=classic;html=1;rounded=0;strokeWidth=2;exitX=0.5;exitY=1;exitDx=0;exitDy=0;entryX=1;entryY=0.5;entryDx=0;entryDy=0;textShadow=0;" edge="1" parent="1" source="v1wCD1H5V6o5z9qrqqnc-12" target="v1wCD1H5V6o5z9qrqqnc-14">
          <mxGeometry width="50" height="50" relative="1" as="geometry">
            <mxPoint x="239.5" as="sourcePoint" />
            <mxPoint x="-210" y="10" as="targetPoint" />
            <Array as="points">
              <mxPoint x="240" y="10" />
            </Array>
          </mxGeometry>
        </mxCell>
        <mxCell id="MKp3U7_JL66kcD90rXiK-67" value="" style="endArrow=classic;html=1;rounded=0;strokeWidth=2;exitX=0.5;exitY=1;exitDx=0;exitDy=0;entryX=1;entryY=0.5;entryDx=0;entryDy=0;flowAnimation=0;jumpStyle=arc;textShadow=0;" edge="1" parent="1" source="v1wCD1H5V6o5z9qrqqnc-18" target="v1wCD1H5V6o5z9qrqqnc-14">
          <mxGeometry width="50" height="50" relative="1" as="geometry">
            <mxPoint x="-105" y="-140" as="sourcePoint" />
            <mxPoint x="-230" y="-80" as="targetPoint" />
            <Array as="points">
              <mxPoint x="-115" y="-90" />
              <mxPoint x="-200" y="-90" />
              <mxPoint x="-200" y="10" />
            </Array>
          </mxGeometry>
        </mxCell>
        <mxCell id="MKp3U7_JL66kcD90rXiK-68" value="" style="shape=flexArrow;endArrow=classic;startArrow=classic;html=1;rounded=0;endWidth=8;endSize=4.38;width=3.6;startWidth=8;startSize=4.38;fillColor=#f8cecc;strokeColor=#b85450;targetPerimeterSpacing=0;entryX=0.502;entryY=-0.119;entryDx=0;entryDy=0;entryPerimeter=0;exitX=0.917;exitY=0.5;exitDx=0;exitDy=0;exitPerimeter=0;textShadow=0;" edge="1" parent="1" source="v1wCD1H5V6o5z9qrqqnc-13" target="v1wCD1H5V6o5z9qrqqnc-46">
          <mxGeometry width="100" height="100" relative="1" as="geometry">
            <mxPoint x="-20" y="70" as="sourcePoint" />
            <mxPoint x="120" y="120" as="targetPoint" />
            <Array as="points">
              <mxPoint x="120" y="70" />
            </Array>
          </mxGeometry>
        </mxCell>
        <mxCell id="MKp3U7_JL66kcD90rXiK-69" value="" style="endArrow=classic;html=1;rounded=0;strokeWidth=2;exitX=0.5;exitY=1;exitDx=0;exitDy=0;entryX=1;entryY=0.5;entryDx=0;entryDy=0;textShadow=0;" edge="1" parent="1" source="v1wCD1H5V6o5z9qrqqnc-11" target="v1wCD1H5V6o5z9qrqqnc-14">
          <mxGeometry width="50" height="50" relative="1" as="geometry">
            <mxPoint x="250" as="sourcePoint" />
            <mxPoint x="-230" y="20" as="targetPoint" />
            <Array as="points">
              <mxPoint x="120" y="10" />
            </Array>
          </mxGeometry>
        </mxCell>
        <mxCell id="MKp3U7_JL66kcD90rXiK-70" value="" style="endArrow=classic;html=1;rounded=0;strokeWidth=2;exitX=0.5;exitY=1;exitDx=0;exitDy=0;textShadow=0;" edge="1" parent="1" source="v1wCD1H5V6o5z9qrqqnc-44">
          <mxGeometry width="50" height="50" relative="1" as="geometry">
            <mxPoint x="130" as="sourcePoint" />
            <mxPoint x="-240" y="10" as="targetPoint" />
            <Array as="points">
              <mxPoint y="10" />
            </Array>
          </mxGeometry>
        </mxCell>
        <mxCell id="MKp3U7_JL66kcD90rXiK-71" value="" style="endArrow=classic;html=1;rounded=0;strokeWidth=2;exitX=0.5;exitY=1;exitDx=0;exitDy=0;entryX=1;entryY=0.5;entryDx=0;entryDy=0;textShadow=0;" edge="1" parent="1" source="v1wCD1H5V6o5z9qrqqnc-10" target="v1wCD1H5V6o5z9qrqqnc-14">
          <mxGeometry width="50" height="50" relative="1" as="geometry">
            <mxPoint x="140" y="10" as="sourcePoint" />
            <mxPoint x="-220" y="30" as="targetPoint" />
            <Array as="points">
              <mxPoint x="-120" y="10" />
            </Array>
          </mxGeometry>
        </mxCell>
        <mxCell id="MKp3U7_JL66kcD90rXiK-72" value="" style="shape=flexArrow;endArrow=classic;startArrow=classic;html=1;rounded=0;endWidth=8;endSize=2.686111111111111;width=4.166666666666667;startWidth=8;startSize=2.686111111111111;fillColor=#f8cecc;strokeColor=#b85450;entryX=0.505;entryY=-0.049;entryDx=0;entryDy=0;targetPerimeterSpacing=0;entryPerimeter=0;exitX=0.509;exitY=1.069;exitDx=0;exitDy=0;exitPerimeter=0;textShadow=0;" edge="1" parent="1" source="v1wCD1H5V6o5z9qrqqnc-13" target="v1wCD1H5V6o5z9qrqqnc-43">
          <mxGeometry width="100" height="100" relative="1" as="geometry">
            <mxPoint x="-50" y="100" as="sourcePoint" />
            <mxPoint x="-49.99999999999977" y="129.9999999999999" as="targetPoint" />
            <Array as="points" />
          </mxGeometry>
        </mxCell>
        <mxCell id="MKp3U7_JL66kcD90rXiK-74" value="" style="shape=flexArrow;endArrow=classic;startArrow=none;html=1;rounded=0;endWidth=8;endSize=4.38;width=3.6;startWidth=8;startSize=4.38;fillColor=#f8cecc;strokeColor=#b85450;exitX=0.5;exitY=1;exitDx=0;exitDy=0;targetPerimeterSpacing=0;startFill=0;entryX=0.489;entryY=-0.095;entryDx=0;entryDy=0;entryPerimeter=0;textShadow=0;" edge="1" parent="1" target="v1wCD1H5V6o5z9qrqqnc-47">
          <mxGeometry width="100" height="100" relative="1" as="geometry">
            <mxPoint x="-80.2" y="170" as="sourcePoint" />
            <mxPoint x="-80" y="190" as="targetPoint" />
            <Array as="points" />
          </mxGeometry>
        </mxCell>
        <mxCell id="MKp3U7_JL66kcD90rXiK-77" value="" style="shape=flexArrow;endArrow=classic;startArrow=none;html=1;rounded=0;endWidth=8;endSize=4.38;width=3.6;startWidth=8;startSize=4.38;fillColor=#f8cecc;strokeColor=#b85450;exitX=0.5;exitY=1;exitDx=0;exitDy=0;targetPerimeterSpacing=0;startFill=0;entryX=0.497;entryY=-0.079;entryDx=0;entryDy=0;entryPerimeter=0;textShadow=0;" edge="1" parent="1" target="v1wCD1H5V6o5z9qrqqnc-48">
          <mxGeometry width="100" height="100" relative="1" as="geometry">
            <mxPoint x="119.80000000000001" y="170" as="sourcePoint" />
            <mxPoint x="120" y="190" as="targetPoint" />
            <Array as="points" />
          </mxGeometry>
        </mxCell>
        <mxCell id="MKp3U7_JL66kcD90rXiK-78" value="" style="shape=flexArrow;endArrow=classic;startArrow=none;html=1;rounded=0;endWidth=8;endSize=4.38;width=3.6;startWidth=8;startSize=4.38;fillColor=#f8cecc;strokeColor=#b85450;exitX=0.5;exitY=1;exitDx=0;exitDy=0;targetPerimeterSpacing=0;startFill=0;entryX=0.496;entryY=-0.081;entryDx=0;entryDy=0;entryPerimeter=0;textShadow=0;" edge="1" parent="1" target="v1wCD1H5V6o5z9qrqqnc-51">
          <mxGeometry width="100" height="100" relative="1" as="geometry">
            <mxPoint x="319.58000000000004" y="170" as="sourcePoint" />
            <mxPoint x="320" y="200" as="targetPoint" />
            <Array as="points" />
          </mxGeometry>
        </mxCell>
        <mxCell id="MKp3U7_JL66kcD90rXiK-80" value="" style="endArrow=classic;html=1;rounded=0;strokeWidth=2;exitX=1;exitY=0.5;exitDx=0;exitDy=0;entryX=-0.028;entryY=0.484;entryDx=0;entryDy=0;entryPerimeter=0;textShadow=0;" edge="1" parent="1" source="v1wCD1H5V6o5z9qrqqnc-17" target="v1wCD1H5V6o5z9qrqqnc-43">
          <mxGeometry width="50" height="50" relative="1" as="geometry">
            <mxPoint x="-310" y="40" as="sourcePoint" />
            <mxPoint x="-170" y="150" as="targetPoint" />
            <Array as="points" />
          </mxGeometry>
        </mxCell>
        <mxCell id="MKp3U7_JL66kcD90rXiK-81" value="" style="endArrow=classic;html=1;rounded=0;strokeWidth=2;exitX=1;exitY=0.5;exitDx=0;exitDy=0;entryX=-0.017;entryY=0.5;entryDx=0;entryDy=0;entryPerimeter=0;textShadow=0;" edge="1" parent="1" source="v1wCD1H5V6o5z9qrqqnc-43" target="v1wCD1H5V6o5z9qrqqnc-46">
          <mxGeometry width="50" height="50" relative="1" as="geometry">
            <mxPoint x="-230" y="160" as="sourcePoint" />
            <mxPoint x="30" y="150" as="targetPoint" />
            <Array as="points" />
          </mxGeometry>
        </mxCell>
        <mxCell id="MKp3U7_JL66kcD90rXiK-82" value="" style="endArrow=classic;html=1;rounded=0;strokeWidth=2;entryX=-0.016;entryY=0.507;entryDx=0;entryDy=0;entryPerimeter=0;textShadow=0;" edge="1" parent="1" target="MKp3U7_JL66kcD90rXiK-6">
          <mxGeometry width="50" height="50" relative="1" as="geometry">
            <mxPoint x="200" y="150" as="sourcePoint" />
            <mxPoint x="230" y="150" as="targetPoint" />
            <Array as="points" />
          </mxGeometry>
        </mxCell>
        <mxCell id="MKp3U7_JL66kcD90rXiK-83" value="" style="endArrow=classic;html=1;rounded=0;strokeWidth=2;exitX=1;exitY=0.5;exitDx=0;exitDy=0;entryX=0.982;entryY=0.5;entryDx=0;entryDy=0;entryPerimeter=0;textShadow=0;" edge="1" parent="1" source="v1wCD1H5V6o5z9qrqqnc-46" target="v1wCD1H5V6o5z9qrqqnc-48">
          <mxGeometry width="50" height="50" relative="1" as="geometry">
            <mxPoint x="-210" y="180" as="sourcePoint" />
            <mxPoint x="180" y="240" as="targetPoint" />
            <Array as="points">
              <mxPoint x="210" y="150" />
              <mxPoint x="210" y="240" />
            </Array>
          </mxGeometry>
        </mxCell>
        <mxCell id="MKp3U7_JL66kcD90rXiK-84" value="" style="endArrow=classic;html=1;rounded=0;strokeWidth=2;exitX=0;exitY=0.5;exitDx=0;exitDy=0;exitPerimeter=0;entryX=-0.019;entryY=0.493;entryDx=0;entryDy=0;entryPerimeter=0;textShadow=0;" edge="1" parent="1" source="v1wCD1H5V6o5z9qrqqnc-48" target="v1wCD1H5V6o5z9qrqqnc-46">
          <mxGeometry width="50" height="50" relative="1" as="geometry">
            <mxPoint x="20" y="240" as="sourcePoint" />
            <mxPoint x="30" y="150" as="targetPoint" />
            <Array as="points">
              <mxPoint x="20" y="240" />
              <mxPoint x="20" y="150" />
            </Array>
          </mxGeometry>
        </mxCell>
        <mxCell id="MKp3U7_JL66kcD90rXiK-86" value="" style="shape=flexArrow;endArrow=classic;startArrow=none;html=1;rounded=0;endWidth=8;endSize=4.38;width=3.6;startWidth=8;startSize=4.38;fillColor=#f8cecc;strokeColor=#b85450;exitX=1.001;exitY=0.381;exitDx=0;exitDy=0;targetPerimeterSpacing=0;startFill=0;exitPerimeter=0;entryX=-0.025;entryY=0.476;entryDx=0;entryDy=0;entryPerimeter=0;textShadow=0;" edge="1" parent="1" source="v1wCD1H5V6o5z9qrqqnc-15" target="v1wCD1H5V6o5z9qrqqnc-14">
          <mxGeometry width="100" height="100" relative="1" as="geometry">
            <mxPoint x="-399.99999999999994" y="50" as="sourcePoint" />
            <mxPoint x="-410" y="10" as="targetPoint" />
            <Array as="points" />
          </mxGeometry>
        </mxCell>
        <mxCell id="MKp3U7_JL66kcD90rXiK-87" value="" style="shape=flexArrow;endArrow=classic;startArrow=none;html=1;rounded=0;endWidth=8;endSize=4.38;width=3.6;startWidth=8;startSize=4.38;fillColor=#f8cecc;strokeColor=#b85450;exitX=1;exitY=1;exitDx=0;exitDy=0;targetPerimeterSpacing=0;startFill=0;entryX=0.072;entryY=0.502;entryDx=0;entryDy=0;entryPerimeter=0;textShadow=0;" edge="1" parent="1" source="v1wCD1H5V6o5z9qrqqnc-14" target="v1wCD1H5V6o5z9qrqqnc-13">
          <mxGeometry width="100" height="100" relative="1" as="geometry">
            <mxPoint x="139.8" y="190" as="sourcePoint" />
            <mxPoint x="-150" y="60" as="targetPoint" />
            <Array as="points" />
          </mxGeometry>
        </mxCell>
        <mxCell id="MKp3U7_JL66kcD90rXiK-85" value="" style="endArrow=classic;html=1;rounded=0;strokeWidth=2;entryX=0.72;entryY=-0.067;entryDx=0;entryDy=0;jumpStyle=arc;entryPerimeter=0;textShadow=0;" edge="1" parent="1" target="v1wCD1H5V6o5z9qrqqnc-17">
          <mxGeometry width="50" height="50" relative="1" as="geometry">
            <mxPoint x="-200" y="10" as="sourcePoint" />
            <mxPoint x="-230" y="20" as="targetPoint" />
            <Array as="points">
              <mxPoint x="-200" y="70" />
              <mxPoint x="-280" y="70" />
            </Array>
          </mxGeometry>
        </mxCell>
        <mxCell id="MKp3U7_JL66kcD90rXiK-88" value="" style="endArrow=classic;html=1;rounded=0;strokeWidth=2;exitX=0.5;exitY=1;exitDx=0;exitDy=0;entryX=0.501;entryY=-0.095;entryDx=0;entryDy=0;entryPerimeter=0;textShadow=0;" edge="1" parent="1" source="v1wCD1H5V6o5z9qrqqnc-4" target="v1wCD1H5V6o5z9qrqqnc-5">
          <mxGeometry width="50" height="50" relative="1" as="geometry">
            <mxPoint x="-310" y="-220" as="sourcePoint" />
            <mxPoint x="-320" y="-110" as="targetPoint" />
          </mxGeometry>
        </mxCell>
        <mxCell id="MKp3U7_JL66kcD90rXiK-89" value="" style="endArrow=classic;html=1;rounded=0;strokeWidth=2;exitX=0.5;exitY=1;exitDx=0;exitDy=0;entryX=0.499;entryY=-0.083;entryDx=0;entryDy=0;entryPerimeter=0;textShadow=0;" edge="1" parent="1" source="v1wCD1H5V6o5z9qrqqnc-5" target="v1wCD1H5V6o5z9qrqqnc-14">
          <mxGeometry width="50" height="50" relative="1" as="geometry">
            <mxPoint x="-300" y="-210" as="sourcePoint" />
            <mxPoint x="-320" y="-20" as="targetPoint" />
          </mxGeometry>
        </mxCell>
        <mxCell id="MKp3U7_JL66kcD90rXiK-90" value="" style="endArrow=classic;html=1;rounded=0;strokeWidth=2;exitX=0.5;exitY=1;exitDx=0;exitDy=0;entryX=0.47;entryY=-0.088;entryDx=0;entryDy=0;entryPerimeter=0;textShadow=0;" edge="1" parent="1" source="v1wCD1H5V6o5z9qrqqnc-14" target="v1wCD1H5V6o5z9qrqqnc-17">
          <mxGeometry width="50" height="50" relative="1" as="geometry">
            <mxPoint x="-290" y="-200" as="sourcePoint" />
            <mxPoint x="-320" y="120" as="targetPoint" />
          </mxGeometry>
        </mxCell>
        <mxCell id="MKp3U7_JL66kcD90rXiK-101" value="Key" style="swimlane;whiteSpace=wrap;html=1;textShadow=0;" vertex="1" parent="1">
          <mxGeometry x="150" y="-290" width="260" height="140" as="geometry" />
        </mxCell>
        <mxCell id="MKp3U7_JL66kcD90rXiK-94" value="Data File" style="strokeWidth=2;html=1;shape=mxgraph.flowchart.document2;whiteSpace=wrap;size=0.25;fillColor=#f8cecc;strokeColor=#b85450;shadow=0;textShadow=0;" vertex="1" parent="MKp3U7_JL66kcD90rXiK-101">
          <mxGeometry x="10" y="40" width="70" height="40" as="geometry" />
        </mxCell>
        <mxCell id="MKp3U7_JL66kcD90rXiK-96" value="Model&lt;div&gt;step&lt;/div&gt;" style="rounded=1;whiteSpace=wrap;html=1;absoluteArcSize=1;arcSize=14;strokeWidth=2;shadow=0;textShadow=0;" vertex="1" parent="MKp3U7_JL66kcD90rXiK-101">
          <mxGeometry x="90" y="40" width="80" height="40" as="geometry" />
        </mxCell>
        <mxCell id="MKp3U7_JL66kcD90rXiK-95" value="Core&lt;div&gt;Object&lt;/div&gt;" style="shape=parallelogram;html=1;strokeWidth=2;perimeter=parallelogramPerimeter;whiteSpace=wrap;rounded=1;arcSize=12;size=0.23;fillColor=#dae8fc;strokeColor=#6c8ebf;shadow=0;textShadow=0;" vertex="1" parent="MKp3U7_JL66kcD90rXiK-101">
          <mxGeometry x="180" y="40" width="70" height="40" as="geometry" />
        </mxCell>
        <mxCell id="MKp3U7_JL66kcD90rXiK-97" value="" style="endArrow=classic;html=1;rounded=0;strokeWidth=2;exitX=1;exitY=0.5;exitDx=0;exitDy=0;textShadow=0;" edge="1" parent="MKp3U7_JL66kcD90rXiK-101">
          <mxGeometry width="50" height="50" relative="1" as="geometry">
            <mxPoint x="20" y="110" as="sourcePoint" />
            <mxPoint x="120" y="110" as="targetPoint" />
          </mxGeometry>
        </mxCell>
        <mxCell id="MKp3U7_JL66kcD90rXiK-98" value="&lt;font style=&quot;font-size: 12px;&quot;&gt;Program&lt;/font&gt;&lt;div&gt;&lt;font style=&quot;font-size: 12px;&quot;&gt;Flow&amp;nbsp;&lt;/font&gt;&lt;/div&gt;" style="edgeLabel;html=1;align=center;verticalAlign=middle;resizable=0;points=[];textShadow=0;" vertex="1" connectable="0" parent="MKp3U7_JL66kcD90rXiK-97">
          <mxGeometry x="-0.0669" y="1" relative="1" as="geometry">
            <mxPoint as="offset" />
          </mxGeometry>
        </mxCell>
        <mxCell id="MKp3U7_JL66kcD90rXiK-99" value="" style="shape=flexArrow;endArrow=classic;startArrow=none;html=1;rounded=0;endWidth=8;endSize=4.38;width=3.6;startWidth=8;startSize=4.38;fillColor=#f8cecc;strokeColor=#b85450;exitX=1;exitY=1;exitDx=0;exitDy=0;targetPerimeterSpacing=0;startFill=0;textShadow=0;" edge="1" parent="MKp3U7_JL66kcD90rXiK-101">
          <mxGeometry width="100" height="100" relative="1" as="geometry">
            <mxPoint x="140" y="110" as="sourcePoint" />
            <mxPoint x="240" y="110" as="targetPoint" />
            <Array as="points" />
          </mxGeometry>
        </mxCell>
        <mxCell id="MKp3U7_JL66kcD90rXiK-100" value="&lt;font style=&quot;font-size: 12px;&quot;&gt;Data&lt;/font&gt;&lt;div&gt;&lt;font style=&quot;font-size: 12px;&quot;&gt;Flow&lt;/font&gt;&lt;/div&gt;" style="edgeLabel;html=1;align=center;verticalAlign=middle;resizable=0;points=[];textShadow=0;" vertex="1" connectable="0" parent="MKp3U7_JL66kcD90rXiK-99">
          <mxGeometry x="0.1309" y="-2" relative="1" as="geometry">
            <mxPoint as="offset" />
          </mxGeometry>
        </mxCell>
      </root>
    </mxGraphModel>
  </diagram>
</mxfile>
